<svg width="1152" height="430" viewBox="0 0 1152 430" fill="none" xmlns="http://www.w3.org/2000/svg">
<path d="M279.956 434C972.288 408.995 773.225 181.44 1153 65V434H279.956C199.333 436.912 106.622 437.077 -0.5 434H279.956Z" fill="url(#paint0_linear)"/>
<g clip-path="url(#clip0)">
<path d="M1017.02 71.0284C1016.91 71.2611 1016.75 71.7263 1016.48 72.0365C1011.75 78.1235 1005.4 81.5742 997.915 82.9699C996.636 83.2025 996.364 83.7453 996.364 84.8309C996.209 92.779 996.016 100.727 995.744 108.675C995.705 109.799 996.132 110.226 997.101 110.652C1000.67 112.281 1004.23 113.948 1007.76 115.654C1011.71 117.592 1013.53 120.927 1013.53 125.192C1013.53 131.24 1013.34 137.327 1013.11 143.375C1013.11 143.84 1012.37 144.616 1011.95 144.616C1008.46 144.732 1005.01 144.655 1001.33 144.655C1001.48 142.096 1001.64 139.769 1001.71 137.404C1001.83 134.109 1001.87 130.813 1001.98 127.518C1002.02 126.432 1001.71 125.734 1000.67 125.269C995.822 123.059 990.977 120.81 986.093 118.523C986.093 120.384 985.899 122.245 986.132 124.067C987.295 132.713 985.434 141.01 983.186 149.23C982.411 152.099 981.636 154.968 980.783 157.798C980.628 158.302 979.891 159.039 979.504 159C975.977 158.651 972.488 158.186 968.845 157.72C970.008 153.262 970.938 148.881 972.333 144.693C974.736 137.443 974.853 130.038 974.465 122.516C974.039 113.87 973.69 105.224 973.419 96.5785C973.264 92.275 973.38 87.9326 973.38 83.7453C970.589 83.0087 968.341 82.4659 966.171 81.768C960.899 80.0621 956.403 77.1155 952.915 72.7731C950.279 69.5164 947.682 66.2208 945.163 62.8477C943.341 60.4052 943.845 57.1096 946.132 55.4812C948.186 54.0079 951.442 54.6283 953.186 56.877C955.434 59.7848 957.76 62.6539 959.93 65.6005C963.729 70.757 969.116 73.2771 975.202 73.6261C981.829 74.0138 988.496 73.8975 995.124 73.3547C1000.16 72.9282 1004.66 70.7183 1007.91 66.4922C1009.54 64.3986 1011.33 62.4213 1012.84 60.2889C1013.34 59.591 1013.57 58.3503 1013.34 57.5361C1008.92 41.7951 1004.43 26.054 999.93 10.3518C999.736 9.73142 999.543 9.11108 999.426 8.49075C999.116 6.82359 999.969 5.38906 1001.48 5.04012C1003.15 4.65241 1004.27 5.4666 1004.78 6.97867C1005.86 10.4293 1006.87 13.8799 1007.88 17.3305C1011.36 29.1945 1014.85 41.0584 1018.26 52.9224C1018.61 54.0855 1019.08 54.3569 1020.24 54.4344C1024.16 54.7058 1026.48 59.0094 1024.04 62.0335C1021.95 64.67 1022.02 67.035 1023.22 69.7878C1023.77 71.0672 1024.08 72.5017 1024.47 73.8587C1025.09 76.0299 1024.35 77.6195 1022.45 78.1623C1020.94 78.5888 1019.74 77.697 1019.08 75.5646C1018.65 74.1689 1018.22 72.7344 1017.8 71.3386C1017.68 71.3386 1017.57 71.2998 1017.02 71.0284Z" fill="#F47A61"/>
<path d="M1016.6 33.6921C1014.27 25.744 1011.87 17.4083 1009.43 9.0725C1012.91 7.01764 1016.6 6.04836 1020.36 5.66065C1025.12 5.1954 1029.39 3.64456 1033.22 0.853044C1034.85 -0.310087 1036.67 -0.348858 1037.53 0.969357C1037.99 1.66724 1038.22 2.7916 1038.07 3.64456C1037.6 6.70747 1037.02 9.73161 1036.29 12.7558C1036.02 13.9189 1036.36 14.5392 1037.18 15.1983C1039.04 16.8267 1040.82 18.4939 1042.6 20.161C1044.62 22.022 1044.35 23.8055 1042.06 25.3176C1037.29 28.4968 1032.18 30.3578 1026.44 30.9781C1023.26 31.3658 1020.09 32.7228 1016.6 33.6921Z" fill="#F47A61"/>
<path d="M996.171 58.9708C996.171 65.3292 990.744 70.7184 984.426 70.6409C977.992 70.5633 972.682 65.2129 972.682 58.8932C972.682 52.3022 978.07 47.0293 984.698 47.0681C991.054 47.1069 996.171 52.4185 996.171 58.9708Z" fill="#F47A61"/>
</g>
<defs>
<linearGradient id="paint0_linear" x1="1232" y1="137" x2="292" y2="537.001" gradientUnits="userSpaceOnUse">
<stop stop-color="#F47A61"/>
<stop offset="1" stop-color="#F15F61"/>
</linearGradient>
<clipPath id="clip0">
<rect width="100" height="159" fill="white" transform="translate(944)"/>
</clipPath>
</defs>
</svg>
